<svg width="9" height="17" viewBox="0 0 9 17" fill="none" xmlns="http://www.w3.org/2000/svg">
<path d="M8.53338 12.36C8.4714 12.2975 8.39767 12.2479 8.31643 12.2141C8.23519 12.1802 8.14805 12.1628 8.06005 12.1628C7.97204 12.1628 7.8849 12.1802 7.80366 12.2141C7.72242 12.2479 7.64869 12.2975 7.58671 12.36L5.16671 14.78V1.16667C5.16671 0.989855 5.09647 0.820286 4.97145 0.695262C4.84643 0.570238 4.67686 0.5 4.50004 0.5V0.5C4.32323 0.5 4.15366 0.570238 4.02864 0.695262C3.90362 0.820286 3.83338 0.989855 3.83338 1.16667V14.7733L1.42004 12.36C1.3629 12.2819 1.28943 12.2171 1.20474 12.1702C1.12005 12.1234 1.02617 12.0955 0.929622 12.0886C0.833075 12.0817 0.736178 12.0959 0.645665 12.1302C0.555153 12.1645 0.473197 12.2181 0.405492 12.2872C0.337787 12.3564 0.285959 12.4395 0.253608 12.5307C0.221257 12.622 0.20916 12.7191 0.218158 12.8155C0.227156 12.9119 0.257032 13.0052 0.305711 13.0888C0.354391 13.1725 0.420705 13.2445 0.500044 13.3L3.11338 15.9133C3.48838 16.2879 3.99671 16.4982 4.52671 16.4982C5.05671 16.4982 5.56504 16.2879 5.94004 15.9133L8.55338 13.3C8.67493 13.1725 8.74105 13.002 8.7373 12.8259C8.73356 12.6497 8.66024 12.4822 8.53338 12.36Z" fill="black"/>
</svg>
