<svg width="16" height="9" viewBox="0 0 16 9" fill="none" xmlns="http://www.w3.org/2000/svg">
<path d="M15.4133 3.1066L12.8333 0.499933C12.7714 0.437448 12.6976 0.387851 12.6164 0.354005C12.5351 0.32016 12.448 0.302734 12.36 0.302734C12.272 0.302734 12.1849 0.32016 12.1036 0.354005C12.0224 0.387851 11.9486 0.437448 11.8867 0.499933C11.7625 0.624842 11.6928 0.793809 11.6928 0.969933C11.6928 1.14606 11.7625 1.31502 11.8867 1.43993L14.26 3.83327H0.666667C0.489856 3.83327 0.320286 3.9035 0.195262 4.02853C0.0702379 4.15355 0 4.32312 0 4.49993H0C0 4.67674 0.0702379 4.84631 0.195262 4.97134C0.320286 5.09636 0.489856 5.1666 0.666667 5.1666H14.3L11.8867 7.57327C11.8242 7.63524 11.7746 7.70898 11.7407 7.79021C11.7069 7.87145 11.6895 7.95859 11.6895 8.0466C11.6895 8.13461 11.7069 8.22174 11.7407 8.30298C11.7746 8.38422 11.8242 8.45796 11.8867 8.51993C11.9486 8.58242 12.0224 8.63202 12.1036 8.66586C12.1849 8.69971 12.272 8.71713 12.36 8.71713C12.448 8.71713 12.5351 8.69971 12.6164 8.66586C12.6976 8.63202 12.7714 8.58242 12.8333 8.51993L15.4133 5.93327C15.7879 5.55827 15.9982 5.04993 15.9982 4.51993C15.9982 3.98993 15.7879 3.4816 15.4133 3.1066Z" fill="white"/>
</svg>
