<svg width="10" height="17" viewBox="0 0 10 17" fill="none" xmlns="http://www.w3.org/2000/svg">
<path d="M9.03338 12.36C8.9714 12.2975 8.89767 12.2479 8.81643 12.2141C8.73519 12.1802 8.64805 12.1628 8.56005 12.1628C8.47204 12.1628 8.3849 12.1802 8.30366 12.2141C8.22242 12.2479 8.14869 12.2975 8.08671 12.36L5.66671 14.78V1.16667C5.66671 0.989855 5.59647 0.820286 5.47145 0.695262C5.34643 0.570238 5.17686 0.5 5.00004 0.5V0.5C4.82323 0.5 4.65366 0.570238 4.52864 0.695262C4.40362 0.820286 4.33338 0.989855 4.33338 1.16667V14.7733L1.92004 12.36C1.8629 12.2819 1.78943 12.2171 1.70474 12.1702C1.62005 12.1234 1.52617 12.0955 1.42962 12.0886C1.33307 12.0817 1.23618 12.0959 1.14567 12.1302C1.05515 12.1645 0.973197 12.2181 0.905492 12.2872C0.837787 12.3564 0.785959 12.4395 0.753608 12.5307C0.721257 12.622 0.70916 12.7191 0.718158 12.8155C0.727156 12.9119 0.757032 13.0052 0.805711 13.0888C0.854391 13.1725 0.920705 13.2445 1.00004 13.3L3.61338 15.9133C3.98838 16.2879 4.49671 16.4982 5.02671 16.4982C5.55671 16.4982 6.06504 16.2879 6.44004 15.9133L9.05338 13.3C9.17493 13.1725 9.24105 13.002 9.2373 12.8259C9.23356 12.6497 9.16024 12.4822 9.03338 12.36Z" fill="white"/>
</svg>
