<svg width="16" height="8" viewBox="0 0 16 8" fill="none" xmlns="http://www.w3.org/2000/svg">
<path d="M8.00004 7.94652C7.56201 7.9473 7.12812 7.86174 6.72317 7.69473C6.31823 7.52772 5.95017 7.28253 5.64004 6.97318L0.193376 1.52652C0.0678397 1.40098 -0.00268555 1.23072 -0.00268555 1.05318C-0.00268555 0.875649 0.0678397 0.705386 0.193376 0.57985C0.318911 0.454314 0.489174 0.383789 0.666709 0.383789C0.844243 0.383789 1.01451 0.454314 1.14004 0.57985L6.58671 6.02652C6.96171 6.40105 7.47004 6.61142 8.00004 6.61142C8.53004 6.61142 9.03837 6.40105 9.41338 6.02652L14.86 0.57985C14.9856 0.454314 15.1558 0.383789 15.3334 0.383789C15.5109 0.383789 15.6812 0.454314 15.8067 0.57985C15.9322 0.705386 16.0028 0.875649 16.0028 1.05318C16.0028 1.23072 15.9322 1.40098 15.8067 1.52652L10.36 6.97318C10.0499 7.28253 9.68186 7.52772 9.27691 7.69473C8.87197 7.86174 8.43808 7.9473 8.00004 7.94652Z" fill="white"/>
</svg>
