<svg width="20" height="20" viewBox="0 0 20 20" fill="none" xmlns="http://www.w3.org/2000/svg">
<g clip-path="url(#clip0_34_618)">
<path d="M9.99994 1.80078C12.6718 1.80078 12.9882 1.8125 14.039 1.85937C15.0156 1.90234 15.5429 2.06641 15.8945 2.20313C16.3593 2.38281 16.6952 2.60156 17.0429 2.94922C17.3945 3.30078 17.6093 3.63281 17.789 4.09766C17.9257 4.44922 18.0898 4.98047 18.1328 5.95312C18.1796 7.00781 18.1913 7.32422 18.1913 9.99219C18.1913 12.6641 18.1796 12.9805 18.1328 14.0313C18.0898 15.0078 17.9257 15.5352 17.789 15.8867C17.6093 16.3516 17.3906 16.6875 17.0429 17.0352C16.6913 17.3867 16.3593 17.6016 15.8945 17.7813C15.5429 17.918 15.0117 18.082 14.039 18.125C12.9843 18.1719 12.6679 18.1836 9.99994 18.1836C7.32806 18.1836 7.01166 18.1719 5.96088 18.125C4.98431 18.082 4.45697 17.918 4.10541 17.7813C3.64056 17.6016 3.30463 17.3828 2.95697 17.0352C2.60541 16.6836 2.39056 16.3516 2.21088 15.8867C2.07416 15.5352 1.9101 15.0039 1.86713 14.0313C1.82025 12.9766 1.80853 12.6602 1.80853 9.99219C1.80853 7.32031 1.82025 7.00391 1.86713 5.95312C1.9101 4.97656 2.07416 4.44922 2.21088 4.09766C2.39056 3.63281 2.60931 3.29688 2.95697 2.94922C3.30853 2.59766 3.64056 2.38281 4.10541 2.20313C4.45697 2.06641 4.98822 1.90234 5.96088 1.85937C7.01166 1.8125 7.32806 1.80078 9.99994 1.80078ZM9.99994 0C7.2851 0 6.94525 0.0117187 5.87885 0.0585938C4.81635 0.105469 4.08588 0.277344 3.45306 0.523438C2.79291 0.78125 2.23431 1.12109 1.67963 1.67969C1.12103 2.23438 0.781189 2.79297 0.523376 3.44922C0.277283 4.08594 0.105408 4.8125 0.0585327 5.875C0.0116577 6.94531 -6.10352e-05 7.28516 -6.10352e-05 10C-6.10352e-05 12.7148 0.0116577 13.0547 0.0585327 14.1211C0.105408 15.1836 0.277283 15.9141 0.523376 16.5469C0.781189 17.207 1.12103 17.7656 1.67963 18.3203C2.23431 18.875 2.79291 19.2188 3.44916 19.4727C4.08588 19.7188 4.81244 19.8906 5.87494 19.9375C6.94134 19.9844 7.28119 19.9961 9.99603 19.9961C12.7109 19.9961 13.0507 19.9844 14.1171 19.9375C15.1796 19.8906 15.9101 19.7188 16.5429 19.4727C17.1992 19.2188 17.7577 18.875 18.3124 18.3203C18.8671 17.7656 19.2109 17.207 19.4648 16.5508C19.7109 15.9141 19.8828 15.1875 19.9296 14.125C19.9765 13.0586 19.9882 12.7188 19.9882 10.0039C19.9882 7.28906 19.9765 6.94922 19.9296 5.88281C19.8828 4.82031 19.7109 4.08984 19.4648 3.45703C19.2187 2.79297 18.8788 2.23438 18.3203 1.67969C17.7656 1.125 17.207 0.78125 16.5507 0.527344C15.914 0.28125 15.1874 0.109375 14.1249 0.0625C13.0546 0.0117188 12.7148 0 9.99994 0Z" fill="black"/>
<path d="M9.99988 4.86328C7.16394 4.86328 4.86316 7.16406 4.86316 10C4.86316 12.8359 7.16394 15.1367 9.99988 15.1367C12.8358 15.1367 15.1366 12.8359 15.1366 10C15.1366 7.16406 12.8358 4.86328 9.99988 4.86328ZM9.99988 13.332C8.16003 13.332 6.66785 11.8398 6.66785 10C6.66785 8.16016 8.16003 6.66797 9.99988 6.66797C11.8397 6.66797 13.3319 8.16016 13.3319 10C13.3319 11.8398 11.8397 13.332 9.99988 13.332Z" fill="black"/>
<path d="M16.5389 4.66016C16.5389 5.32422 15.9999 5.85938 15.3397 5.85938C14.6757 5.85938 14.1405 5.32031 14.1405 4.66016C14.1405 3.99609 14.6796 3.46094 15.3397 3.46094C15.9999 3.46094 16.5389 4 16.5389 4.66016Z" fill="black"/>
</g>
<defs>
<clipPath id="clip0_34_618">
<rect width="20" height="20" fill="white"/>
</clipPath>
</defs>
</svg>
