<svg width="20" height="20" viewBox="0 0 20 20" fill="none" xmlns="http://www.w3.org/2000/svg">
<path d="M18.5194 0H1.47644C0.660034 0 -0.00012207 0.644531 -0.00012207 1.44141V18.5547C-0.00012207 19.3516 0.660034 20 1.47644 20H18.5194C19.3358 20 19.9999 19.3516 19.9999 18.5586V1.44141C19.9999 0.644531 19.3358 0 18.5194 0ZM5.93347 17.043H2.96472V7.49609H5.93347V17.043ZM4.4491 6.19531C3.49597 6.19531 2.72644 5.42578 2.72644 4.47656C2.72644 3.52734 3.49597 2.75781 4.4491 2.75781C5.39832 2.75781 6.16785 3.52734 6.16785 4.47656C6.16785 5.42187 5.39832 6.19531 4.4491 6.19531ZM17.0428 17.043H14.078V12.4023C14.078 11.2969 14.0585 9.87109 12.535 9.87109C10.9921 9.87109 10.7577 11.0781 10.7577 12.3242V17.043H7.79675V7.49609H10.6405V8.80078H10.6796C11.0741 8.05078 12.0428 7.25781 13.4843 7.25781C16.4882 7.25781 17.0428 9.23438 17.0428 11.8047V17.043V17.043Z" fill="black"/>
</svg>
