<svg width="20" height="16" viewBox="0 0 20 16" fill="none" xmlns="http://www.w3.org/2000/svg">
<path d="M19.8004 4C19.8004 4 19.605 2.62109 19.0035 2.01563C18.2418 1.21875 17.3902 1.21484 16.9996 1.16797C14.2027 0.964844 10.0035 0.964844 10.0035 0.964844H9.99567C9.99567 0.964844 5.79645 0.964844 2.99957 1.16797C2.60895 1.21484 1.75739 1.21875 0.995666 2.01563C0.394104 2.62109 0.202698 4 0.202698 4C0.202698 4 -0.000427246 5.62109 -0.000427246 7.23828V8.75391C-0.000427246 10.3711 0.198791 11.9922 0.198791 11.9922C0.198791 11.9922 0.394104 13.3711 0.99176 13.9766C1.75348 14.7734 2.75348 14.7461 3.19879 14.832C4.80035 14.9844 9.99957 15.0313 9.99957 15.0313C9.99957 15.0313 14.2027 15.0234 16.9996 14.8242C17.3902 14.7773 18.2418 14.7734 19.0035 13.9766C19.605 13.3711 19.8004 11.9922 19.8004 11.9922C19.8004 11.9922 19.9996 10.375 19.9996 8.75391V7.23828C19.9996 5.62109 19.8004 4 19.8004 4ZM7.93317 10.5938V4.97266L13.3355 7.79297L7.93317 10.5938Z" fill="black"/>
</svg>
