<svg width="105" height="17" viewBox="0 0 105 17" fill="none" xmlns="http://www.w3.org/2000/svg">
<path d="M99.1825 7.52737V9.70543H100.713V11.8664C100.718 12.0595 100.707 12.2678 100.674 12.4344C100.613 12.8375 100.231 13.5238 99.144 13.5238C98.064 13.5238 97.6879 12.8375 97.6227 12.4344C97.5953 12.2678 97.5836 12.0595 97.5836 11.8664V5.04097C97.5836 4.79953 97.5999 4.53528 97.6511 4.33527C97.7253 3.9715 98.0477 3.25411 99.1359 3.25411C100.278 3.25411 100.563 4.01043 100.629 4.33527C100.672 4.55043 100.674 4.91133 100.674 4.91133V5.74014H104.435V5.25018C104.435 5.25018 104.452 4.73894 104.407 4.26183C104.124 1.46035 101.816 0.574019 99.1691 0.574019C96.5176 0.574019 94.2561 1.4686 93.9267 4.26183C93.8969 4.51726 93.8515 4.97672 93.8515 5.25018V11.5289C93.8515 11.8024 93.8603 12.0141 93.9109 12.5138C94.1564 15.2382 96.5176 16.2039 99.1585 16.2039C101.816 16.2039 104.161 15.2382 104.41 12.5138C104.455 12.0141 104.459 11.8024 104.465 11.5289V7.52737H99.1825ZM73.2493 0.975764H69.4724V12.0238C69.4783 12.2164 69.4724 12.4327 69.4392 12.5913C69.3604 12.9622 69.0461 13.6759 68.004 13.6759C66.9754 13.6759 66.6529 12.9622 66.58 12.5913C66.5422 12.4327 66.5374 12.2164 66.5422 12.0238V0.975764H62.7664V11.681C62.7616 11.9569 62.7833 12.5207 62.7996 12.6684C63.0602 15.458 65.2587 16.3637 68.004 16.3637C70.7547 16.3637 72.9519 15.458 73.2173 12.6684C73.2382 12.5207 73.2656 11.9569 73.2493 11.681V0.975764ZM38.5459 0.975764L36.6618 12.6496L34.7788 0.975764H28.6863L28.3632 15.9099H32.0957L32.1967 2.08493L34.7648 15.9099H38.5518L41.1222 2.08493L41.2236 15.9099H44.9655L44.6315 0.975764H38.5459ZM15.9885 0.975764L13.2221 15.9099H17.2562L19.3409 2.08493L21.3755 15.9099H25.3817L22.6268 0.975764H15.9885ZM86.4492 12.9995L82.9323 0.975764H77.3903V15.7542H81.0564L80.8436 3.34577L84.6205 15.7542H89.9357V0.975764H86.2456L86.4492 12.9995ZM52.5381 4.86243C52.4717 4.5675 52.4909 4.25416 52.5252 4.09039C52.6321 3.61233 52.9533 3.09092 53.8787 3.09092C54.7413 3.09092 55.2469 3.62862 55.2469 4.43557V5.34875H58.9288V4.30785C58.9288 1.09006 56.0439 0.584566 53.9552 0.584566C51.3246 0.584566 49.1763 1.45172 48.7839 3.87293C48.6802 4.53183 48.6545 5.11671 48.8196 5.86306C49.4593 8.88199 54.715 9.75778 55.4778 11.667C55.6124 12.0286 55.5739 12.4898 55.5052 12.7616C55.391 13.2584 55.0567 13.7582 54.0659 13.7582C53.1366 13.7582 52.5772 13.2239 52.5772 12.4187L52.5761 10.9854H48.6131V12.1247C48.6131 15.4259 51.1988 16.422 53.9838 16.422C56.651 16.422 58.854 15.5105 59.2074 13.0398C59.376 11.7632 59.2489 10.9318 59.1812 10.6186C58.5637 7.5222 52.9621 6.5908 52.5381 4.86243ZM3.96951 4.82581C3.89721 4.52474 3.91408 4.20698 3.95436 4.0413C4.05637 3.56553 4.37949 3.03492 5.32125 3.03492C6.19473 3.03492 6.70904 3.57781 6.70904 4.39127V5.31557H10.4341V4.26643C10.4341 1.01776 7.50505 0.499998 5.39354 0.499998C2.74087 0.499998 0.573373 1.38058 0.176806 3.81924C0.0682673 4.48869 0.0496602 5.07759 0.206523 5.83218C0.85315 8.88544 6.16079 9.76832 6.93302 11.7003C7.07761 12.0595 7.03389 12.5207 6.96217 12.803C6.83963 13.305 6.50271 13.8119 5.50362 13.8119C4.57069 13.8119 4.01265 13.2684 4.01265 12.4521L4.00748 11.015H0V12.1569C0 15.4959 2.62236 16.5 5.42902 16.5C8.12733 16.5 10.3432 15.5805 10.7046 13.0812C10.8843 11.793 10.7495 10.9546 10.6889 10.6366C10.0586 7.50225 4.39465 6.57392 3.96951 4.82581Z" fill="black"/>
</svg>
